<svg xmlns="http://www.w3.org/2000/svg" width="512" height="512" viewBox="0 0 512 512">
  <defs>
    <linearGradient id="g" x1="0" y1="0" x2="1" y2="1">
      <stop offset="0" stop-color="#4f46e5"/>
      <stop offset="1" stop-color="#10b981"/>
    </linearGradient>
  </defs>
  <rect width="512" height="512" rx="128" fill="url(#g)"/>
  <path d="M156 230c44-28 94-42 150-42 16 0 31 1 46 3 8 1 14 8 13 16-1 8-8 14-16 13-14-2-28-3-43-3-52 0-98 13-139 39-4 3-8 4-12 4-6 0-11-3-14-8-4-7-2-16 5-22zm0 52c44-28 94-42 150-42 16 0 31 1 46 3 8 1 14 8 13 16-1 8-8 14-16 13-14-2-28-3-43-3-52 0-98 13-139 39-4 3-8 4-12 4-6 0-11-3-14-8-4-7-2-16 5-22zm0 52c44-28 94-42 150-42 16 0 31 1 46 3 8 1 14 8 13 16-1 8-8 14-16 13-14-2-28-3-43-3-52 0-98 13-139 39-4 3-8 4-12 4-6 0-11-3-14-8-4-7-2-16 5-22z" fill="#ffffff" opacity="0.95"/>
  <path d="M256 128c-26 0-48 10-64 25v38c16-15 38-25 64-25s48 10 64 25v-38c-16-15-38-25-64-25z" fill="#ffffff" opacity="0.95"/>
</svg>
